<svg id="Layer_1" xmlns="http://www.w3.org/2000/svg" viewBox="0 0 780 221.36">
  <defs>
    <style>
      .cls-1 {
        fill: #fff;
      }

      .cls-2 {
        fill: #ed1a40;
      }
    </style>
  </defs>
  <polygon class="cls-1" points="145.52 44.83 119.07 44.83 119.07 27.46 145.52 15.76 145.52 44.83"/>
  <rect class="cls-1" x="119.07" y="59.39" width="26.45" height="102.52"/>
  <path class="cls-1" d="M258.14,98.96v62.94h-26.45v-59.67c0-13.94-8.41-21.12-20.3-21.12-12.92,0-22.55,7.59-22.55,25.42v55.36h-26.45V59.39h26.45v11.48c6.15-9.23,16.81-14.35,30.55-14.35,21.73,0,38.75,15.17,38.75,42.44"/>
  <path class="cls-1" d="M351.28,110.65c0-17.22-12.1-28.91-28.5-28.91s-28.29,11.69-28.29,28.91,12.1,28.91,28.29,28.91,28.5-11.69,28.5-28.91M377.73,59.39v102.52h-26.45v-12.1c-7.38,9.23-18.45,14.97-33.42,14.97-27.27,0-49.82-23.58-49.82-54.13s22.55-54.13,49.82-54.13c14.97,0,26.04,5.74,33.42,14.97v-12.1h26.45Z"/>
  <polygon class="cls-1" points="392.07 23.95 418.52 12.23 418.52 161.91 392.07 161.91 392.07 23.95"/>
  <polygon class="cls-1" points="506.79 59.39 484.03 128.28 457.38 59.39 428.47 59.39 470.5 158.63 450.86 209.49 479.98 209.49 497.77 161.91 535.08 59.39 506.79 59.39"/>
  <polygon class="cls-1" points="617.7 137.1 627.95 161.91 541.11 161.91 541.11 144.28 584.37 84.2 554.87 84.2 543.16 59.39 620.04 59.39 620.04 77.02 576.58 137.1 617.7 137.1"/>
  <g>
    <path class="cls-1" d="M704.12,101.01c-3.28-14.76-14.35-20.71-25.42-20.71-14.15,0-23.78,7.59-26.86,20.71h52.28ZM681.16,140.79c10.25,0,18.45-4.31,22.96-10.25l21.32,12.3c-9.64,13.94-25.01,21.94-44.7,21.94-34.44,0-56.18-23.58-56.18-54.13s21.94-54.13,54.13-54.13c30.35,0,51.87,23.99,51.87,54.13,0,3.9-.41,7.38-1.02,10.87h-77.3c3.69,13.53,14.97,19.27,28.91,19.27"/>
    <path class="cls-1" d="M101.75,103.31c-.52-5.15-2.24-9.96-4.48-14.56-3.18-6.53-7.67-12.06-13.25-16.73-4.5-3.77-9.48-6.67-14.98-8.7-5.19-1.92-10.53-3.05-16.08-3.06-1.63,0-3.27-.15-4.88.03-3.02.34-6.06.67-9.01,1.34-4.46,1.01-8.65,2.68-12.61,4.91V8.4L0,20.12v97.75l.07-.04s0,.04,0,.06h22.27c-.59-2.33-1-4.72-1-7.24,0-15.97,12.65-28.91,28.26-28.91s28.26,12.94,28.26,28.91-12.65,28.91-28.26,28.91c-2.89,0-5.61-.57-8.24-1.39,0,7.5-.02,15,.02,22.5,0,.34.47.92.79.98,1.51.28,3.05.53,4.58.56,3.71.07,7.47.39,11.12-.08,5.42-.7,10.66-2.25,15.64-4.7,4.87-2.4,9.27-5.39,13.16-9.12,5.05-4.84,8.93-10.52,11.71-16.96,2.7-6.24,3.96-12.78,4.12-19.52.07-2.83-.49-5.68-.77-8.51"/>
  </g>
  <rect class="cls-1" x="753.55" y="15.76" width="26.45" height="102.52"/>
  <rect class="cls-2" x="753.55" y="135.46" width="26.45" height="26.45"/>
  <polygon class="cls-2" points="0 143.38 0 159.23 15.85 159.23 52.74 107.43 0 143.38"/>
</svg>