<svg width="780" height="222" viewBox="0 0 780 222" fill="none" xmlns="http://www.w3.org/2000/svg">
  <path d="M145.52 44.83H119.07V27.46L145.52 15.76V44.83Z" fill="black"/>
  <path d="M145.52 59.39H119.07V161.91H145.52V59.39Z" fill="black"/>
  <path d="M258.14 98.96V161.9H231.69V102.23C231.69 88.29 223.28 81.11 211.39 81.11C198.47 81.11 188.84 88.7 188.84 106.53V161.89H162.39V59.39H188.84V70.87C194.99 61.64 205.65 56.52 219.39 56.52C241.12 56.52 258.14 71.69 258.14 98.96Z" fill="black"/>
  <path d="M351.28 110.65C351.28 93.43 339.18 81.74 322.78 81.74C306.38 81.74 294.49 93.43 294.49 110.65C294.49 127.87 306.59 139.56 322.78 139.56C338.97 139.56 351.28 127.87 351.28 110.65ZM377.73 59.39V161.91H351.28V149.81C343.9 159.04 332.83 164.78 317.86 164.78C290.59 164.78 268.04 141.2 268.04 110.65C268.04 80.1 290.59 56.52 317.86 56.52C332.83 56.52 343.9 62.26 351.28 71.49V59.39H377.73Z" fill="black"/>
  <path d="M392.07 23.95L418.52 12.23V161.91H392.07V23.95Z" fill="black"/>
  <path d="M506.79 59.39L484.03 128.28L457.38 59.39H428.47L470.5 158.63L450.86 209.49H479.98L497.77 161.91L535.08 59.39H506.79Z" fill="black"/>
  <path d="M617.7 137.1L627.95 161.91H541.11V144.28L584.37 84.2H554.87L543.16 59.39H620.04V77.02L576.58 137.1H617.7Z" fill="black"/>
  <path d="M704.12 101.01C700.84 86.25 689.77 80.3 678.7 80.3C664.55 80.3 654.92 87.89 651.84 101.01H704.12ZM681.16 140.79C691.41 140.79 699.61 136.48 704.12 130.54L725.44 142.84C715.8 156.78 700.43 164.78 680.74 164.78C646.3 164.78 624.56 141.2 624.56 110.65C624.56 80.1 646.5 56.52 678.69 56.52C709.04 56.52 730.56 80.51 730.56 110.65C730.56 114.55 730.15 118.03 729.54 121.52H652.24C655.93 135.05 667.21 140.79 681.15 140.79" fill="black"/>
  <path d="M101.75 103.31C101.23 98.16 99.51 93.35 97.27 88.75C94.09 82.22 89.6 76.69 84.02 72.02C79.52 68.25 74.54 65.35 69.04 63.32C63.85 61.4 58.51 60.27 52.96 60.26C51.33 60.26 49.69 60.11 48.08 60.29C45.06 60.63 42.02 60.96 39.07 61.63C34.61 62.64 30.42 64.31 26.46 66.54V8.4L0 20.12V117.87L0.07 117.83C0.07 117.83 0.07 117.87 0.07 117.89H22.34C21.75 115.56 21.34 113.17 21.34 110.65C21.34 94.68 33.99 81.74 49.6 81.74C65.21 81.74 77.86 94.68 77.86 110.65C77.86 126.62 65.21 139.56 49.6 139.56C46.71 139.56 43.99 138.99 41.36 138.17C41.36 145.67 41.34 153.17 41.38 160.67C41.38 161.01 41.85 161.59 42.17 161.65C43.68 161.93 45.22 162.18 46.75 162.21C50.46 162.28 54.22 162.6 57.87 162.13C63.29 161.43 68.53 159.88 73.51 157.43C78.38 155.03 82.78 152.04 86.67 148.31C91.72 143.47 95.6 137.79 98.38 131.35C101.08 125.11 102.34 118.57 102.5 111.83C102.57 109 102.01 106.15 101.73 103.32" fill="black"/>
  <path d="M780 15.76H753.55V118.28H780V15.76Z" fill="black"/>
  <path d="M780 135.46H753.55V161.91H780V135.46Z" fill="#ED1A40"/>
  <path d="M0 143.38V159.23H15.85L52.74 107.43L0 143.38Z" fill="#ED1A40"/>
</svg>
