<svg width="1052" height="262" viewBox="0 0 1052 262" fill="none" xmlns="http://www.w3.org/2000/svg">
<path d="M1051.99 5H1004.4V187.44H1051.99V5Z" fill="white"/>
<path d="M1051.99 212.559H1004.4V258.83H1051.99V212.559Z" fill="#EB354D"/>
<path d="M111.2 50.4C153.6 50.4 186.8 80 186.8 133.2V256H135.2V139.6C135.2 112.4 118.8 98.4 95.6 98.4C70.4 98.4 51.6 113.2 51.6 148V256H0V56H51.6V78.4C63.6 60.4 84.4 50.4 111.2 50.4Z" fill="white"/>
<path d="M578.463 105.6H533.263V188.8C533.263 210.4 548.863 210.8 578.463 209.2V256C506.063 264 481.663 242.8 481.663 188.8V105.6H446.862V56H481.663V15.6L533.263 0V56H578.463V105.6Z" fill="white"/>
<path d="M760.594 56H812.194V256H760.594V232.4C746.194 250.4 724.594 261.6 695.394 261.6C642.194 261.6 598.194 215.6 598.194 156C598.194 96.4 642.194 50.4 695.394 50.4C724.594 50.4 746.194 61.6 760.594 79.6V56ZM704.994 212.4C736.994 212.4 760.594 189.6 760.594 156C760.594 122.4 736.994 99.6 704.994 99.6C673.394 99.6 649.794 122.4 649.794 156C649.794 189.6 673.394 212.4 704.994 212.4Z" fill="white"/>
<path d="M910.584 90.4C920.984 63.2 946.184 52 971.384 52V109.6C944.584 106.4 910.584 118.4 910.584 160.4V256H858.984V56H910.584V90.4Z" fill="white"/>
<path d="M326.4 51C384.39 51 431.4 98.0101 431.4 156C431.4 213.99 384.39 261 326.4 261C322.19 261 318.038 260.751 313.957 260.27V214.242C318.037 215.128 322.273 215.595 326.618 215.595C359.411 215.595 385.994 189.011 385.994 156.218C385.994 123.426 359.411 96.842 326.618 96.842C293.826 96.842 267.242 123.426 267.242 156.218C267.242 160.409 267.677 164.498 268.503 168.443H222.13C221.648 164.362 221.4 160.21 221.4 156C221.4 98.0101 268.41 51 326.4 51Z" fill="white"/>
<path d="M221.4 228.741V260.916H253.538L328.319 155.781L221.4 228.741Z" fill="#EB354D"/>
</svg>
