<svg width="1053" height="262" viewBox="0 0 1053 262" fill="none" xmlns="http://www.w3.org/2000/svg">
<g clip-path="url(#clip0_2001_17)">
<path d="M1052.59 5H1005V187.44H1052.59V5Z" fill="black"/>
<path d="M1052.59 212.559H1005V258.83H1052.59V212.559Z" fill="#EB354D"/>
<path d="M111.8 50.4C154.2 50.4 187.4 80 187.4 133.2V256H135.8V139.6C135.8 112.4 119.4 98.4 96.2001 98.4C71.0001 98.4 52.2001 113.2 52.2001 148V256H0.600098V56H52.2001V78.4C64.2001 60.4 85.0001 50.4 111.8 50.4Z" fill="black"/>
<path d="M579.063 105.6H533.863V188.8C533.863 210.4 549.463 210.8 579.063 209.2V256C506.663 264 482.263 242.8 482.263 188.8V105.6H447.463V56H482.263V15.6L533.863 0V56H579.063V105.6Z" fill="black"/>
<path d="M761.194 56H812.794V256H761.194V232.4C746.794 250.4 725.194 261.6 695.994 261.6C642.794 261.6 598.794 215.6 598.794 156C598.794 96.4 642.794 50.4 695.994 50.4C725.194 50.4 746.794 61.6 761.194 79.6V56ZM705.594 212.4C737.594 212.4 761.194 189.6 761.194 156C761.194 122.4 737.594 99.6 705.594 99.6C673.994 99.6 650.394 122.4 650.394 156C650.394 189.6 673.994 212.4 705.594 212.4Z" fill="black"/>
<path d="M911.184 90.4C921.584 63.2 946.785 52 971.984 52V109.6C945.184 106.4 911.184 118.4 911.184 160.4V256H859.584V56H911.184V90.4Z" fill="black"/>
<path d="M327 51C384.99 51 432 98.0101 432 156C432 213.99 384.99 261 327 261C322.79 261 318.638 260.751 314.557 260.27V214.242C318.637 215.128 322.873 215.595 327.218 215.595C360.011 215.595 386.595 189.011 386.595 156.218C386.595 123.426 360.011 96.842 327.218 96.842C294.426 96.842 267.842 123.426 267.842 156.218C267.842 160.409 268.277 164.498 269.103 168.443H222.73C222.249 164.362 222 160.21 222 156C222 98.0101 269.01 51 327 51Z" fill="black"/>
<path d="M222 228.741V260.916H254.138L328.919 155.781L222 228.741Z" fill="#EB354D"/>
</g>
<defs>
<clipPath id="clip0_2001_17">
<rect width="1053" height="262" fill="white"/>
</clipPath>
</defs>
</svg>
